<svg xmlns="http://www.w3.org/2000/svg" width="34" height="34" viewBox="0 0 34 34" fill="none">
  <g clip-path="url(#clip0_1545_14701)">
    <path d="M31.5302 15.2815C31.9139 15.7066 32.1263 16.2589 32.1263 16.8315C32.1263 17.4042 31.9139 17.9565 31.5302 18.3816C29.101 20.9959 23.5717 26.0857 17.1169 26.0857C10.6622 26.0857 5.13281 20.9959 2.7036 18.3816C2.31992 17.9565 2.10754 17.4042 2.10754 16.8315C2.10754 16.2589 2.31992 15.7066 2.7036 15.2815C5.13281 12.6672 10.6622 7.57741 17.1169 7.57741C23.5717 7.57741 29.101 12.6672 31.5302 15.2815Z" stroke="#000001" stroke-width="2.31353" stroke-linecap="round" stroke-linejoin="round"/>
    <path d="M17.1169 21.4586C19.6723 21.4586 21.7439 19.387 21.7439 16.8315C21.7439 14.2761 19.6723 12.2045 17.1169 12.2045C14.5614 12.2045 12.4898 14.2761 12.4898 16.8315C12.4898 19.387 14.5614 21.4586 17.1169 21.4586Z" stroke="#000001" stroke-width="2.31353" stroke-linecap="round" stroke-linejoin="round"/>
  </g>
  <defs>
    <clipPath id="clip0_1545_14701">
      <rect width="32.3895" height="32.3895" fill="white" transform="translate(0.922119 0.63681)"/>
    </clipPath>
  </defs>
</svg>