<svg xmlns="http://www.w3.org/2000/svg" width="33" height="34" viewBox="0 0 33 34" fill="none">
  <g clip-path="url(#clip0_1545_14601)">
    <path d="M20.9649 22.6154C26.7146 22.6154 31.3758 17.9543 31.3758 12.2045C31.3758 6.45469 26.7146 1.79357 20.9649 1.79357C15.2151 1.79357 10.554 6.45469 10.554 12.2045C10.554 17.9543 15.2151 22.6154 20.9649 22.6154Z" stroke="#000001" stroke-width="2.31353" stroke-linecap="round" stroke-linejoin="round"/>
    <path d="M23.8568 9.12747C23.5723 8.69955 23.1963 8.34014 22.756 8.07521C22.3157 7.81028 21.822 7.64645 21.3107 7.59554C20.7993 7.54462 20.2831 7.6079 19.7992 7.78081C19.3153 7.95372 18.8758 8.23193 18.5125 8.59536" stroke="#000001" stroke-width="2.31353" stroke-linecap="round" stroke-linejoin="round"/>
    <path d="M1.2998 31.8695L14.2093 20.1399" stroke="#000001" stroke-width="2.31353" stroke-linecap="round" stroke-linejoin="round"/>
  </g>
  <defs>
    <clipPath id="clip0_1545_14601">
      <rect width="32.3895" height="32.3895" fill="white" transform="translate(0.143066 0.63681)"/>
    </clipPath>
  </defs>
</svg>